<svg width="36" height="36" viewBox="0 0 36 36" fill="none" xmlns="http://www.w3.org/2000/svg">
<path d="M18.0551 35.3967C15.1918 35.3967 12.6426 35.0062 10.4076 34.2253C8.17261 33.4534 6.28317 32.318 4.73931 30.819C3.19544 29.329 2.01959 27.5068 1.21175 25.3526C0.403918 23.1984 0 20.7479 0 18.0013C0 15.2906 0.403918 12.8311 1.21175 10.6231C2.02857 8.41496 3.21788 6.52104 4.7797 4.94127C6.34152 3.35252 8.24891 2.13179 10.5019 1.27907C12.7638 0.426358 15.3399 0 18.2302 0C20.905 0 23.2926 0.390455 25.393 1.17136C27.5023 1.95227 29.2886 3.06529 30.7516 4.51042C32.2237 5.94658 33.3412 7.65649 34.1042 9.64018C34.8761 11.6149 35.2576 13.8005 35.2486 16.1971C35.2576 17.8487 35.114 19.3656 34.8178 20.7479C34.5215 22.1302 34.0548 23.3375 33.4175 24.3697C32.7892 25.393 31.9634 26.2053 30.9401 26.8067C29.9169 27.3991 28.6782 27.7357 27.2241 27.8165C26.1829 27.8973 25.3391 27.821 24.6929 27.5876C24.0466 27.3542 23.5529 27.0087 23.2118 26.5509C22.8797 26.0841 22.6643 25.5411 22.5656 24.9218H22.404C22.1886 25.4603 21.7667 25.9495 21.1384 26.3893C20.5101 26.8202 19.7426 27.1568 18.8361 27.3991C17.9385 27.6325 16.9825 27.7178 15.9682 27.6549C14.9091 27.5921 13.9038 27.3453 12.9523 26.9144C12.0098 26.4836 11.1706 25.8597 10.4346 25.0429C9.7075 24.2261 9.13304 23.2163 8.71117 22.0135C8.29828 20.8108 8.08734 19.4195 8.07837 17.8397C8.08734 16.2779 8.30725 14.918 8.7381 13.7601C9.17792 12.6023 9.75687 11.6284 10.4749 10.8385C11.202 10.0486 12.0098 9.42925 12.8985 8.98045C13.7871 8.53165 14.6802 8.24442 15.5778 8.11876C16.5921 7.96617 17.5525 7.96617 18.4591 8.11876C19.3656 8.27135 20.1286 8.51819 20.7479 8.85927C21.3763 9.20036 21.7667 9.56838 21.9193 9.96332H22.1078V8.45536H26.322V21.5962C26.331 22.2155 26.4701 22.6957 26.7394 23.0368C27.0087 23.3779 27.3722 23.5484 27.83 23.5484C28.4493 23.5484 28.9654 23.2747 29.3783 22.7271C29.8002 22.1796 30.1143 21.3403 30.3208 20.2094C30.5362 19.0784 30.6439 17.6378 30.6439 15.8875C30.6439 14.2 30.4195 12.7189 29.9707 11.4444C29.5309 10.1608 28.9116 9.07021 28.1127 8.17261C27.3228 7.26604 26.4028 6.53001 25.3526 5.96453C24.3024 5.39904 23.1625 4.98615 21.9328 4.72585C20.712 4.46554 19.4554 4.33539 18.1629 4.33539C15.9278 4.33539 13.9756 4.67648 12.306 5.35865C10.6365 6.03185 9.24524 6.97881 8.13222 8.19954C7.0192 9.42027 6.18444 10.8519 5.62793 12.4945C5.08039 14.1282 4.80214 15.9099 4.79316 17.8397C4.80214 19.967 5.09835 21.852 5.68178 23.4946C6.2742 25.1282 7.14487 26.5015 8.29379 27.6145C9.44271 28.7276 10.8609 29.5713 12.5484 30.1458C14.2359 30.7202 16.1747 31.0075 18.3648 31.0075C19.3971 31.0075 20.4068 30.9312 21.3942 30.7786C22.3816 30.635 23.2747 30.4554 24.0735 30.24C24.8724 30.0336 25.5142 29.8316 25.9989 29.6341L27.3318 33.5387C26.7663 33.8618 25.9989 34.1625 25.0295 34.4408C24.069 34.728 22.9829 34.9569 21.7712 35.1274C20.5684 35.3069 19.3297 35.3967 18.0551 35.3967ZM17.4358 23.2253C18.5309 23.2253 19.4015 23.0144 20.0478 22.5925C20.7031 22.1706 21.1698 21.5468 21.4481 20.721C21.7353 19.8862 21.8699 18.8585 21.852 17.6378C21.843 16.5606 21.7039 15.6496 21.4346 14.9046C21.1743 14.1506 20.721 13.5806 20.0747 13.1947C19.4374 12.7997 18.5488 12.6023 17.4089 12.6023C16.4125 12.6023 15.5643 12.8132 14.8642 13.2351C14.173 13.6569 13.6435 14.2493 13.2754 15.0123C12.9164 15.7663 12.7324 16.6549 12.7234 17.6782C12.7324 18.6296 12.885 19.5317 13.1812 20.3844C13.4774 21.2281 13.9666 21.9148 14.6488 22.4444C15.3309 22.965 16.26 23.2253 17.4358 23.2253Z" fill="white"/>
</svg>
